<?xml version="1.0" standalone="no"?>
<!DOCTYPE svg PUBLIC "-//W3C//DTD SVG 20010904//EN"
 "http://www.w3.org/TR/2001/REC-SVG-20010904/DTD/svg10.dtd">
<svg version="1.0" xmlns="http://www.w3.org/2000/svg"
 width="512.000000pt" height="512.000000pt" viewBox="0 0 512.000000 512.000000"
 preserveAspectRatio="xMidYMid meet">
<metadata>
Created by potrace 1.11, written by Peter Selinger 2001-2013
</metadata>
<g transform="translate(0.000000,512.000000) scale(0.100000,-0.100000)"
fill="#000000" stroke="none">
<path d="M3315 4153 c-116 -12 -303 -71 -413 -130 -135 -72 -282 -193 -375
-308 -115 -143 -198 -325 -237 -519 -23 -113 -17 -369 10 -479 7 -26 11 -50 8
-52 -2 -3 -381 -5 -842 -6 -938 -2 -878 3 -924 -75 -18 -30 -22 -50 -19 -90 4
-58 26 -94 77 -122 33 -19 58 -20 550 -21 283 0 693 -1 910 -1 l395 -1 52 -71
c29 -39 50 -74 47 -77 -2 -3 -285 -6 -627 -6 -693 -2 -663 1 -707 -70 -43 -70
-21 -165 50 -212 l33 -23 852 0 c806 0 854 -1 911 -19 101 -32 137 -41 209
-52 69 -10 266 -13 315 -5 14 3 43 7 65 11 55 8 145 32 187 49 29 12 115 15
484 17 477 2 476 1 520 51 63 72 48 183 -33 231 -34 19 -51 21 -257 22 -132 1
-220 5 -218 11 1 5 12 19 23 32 82 94 174 267 215 404 39 132 49 206 48 363
-2 303 -122 583 -344 806 -168 170 -363 275 -595 324 -73 15 -293 26 -370 18z"/>
<path d="M479 1720 c-171 -6 -194 -13 -225 -71 -38 -75 -14 -169 53 -210 l36
-22 1738 0 1739 0 38 30 c46 37 64 72 64 127 0 64 -45 128 -98 142 -28 7
-3135 11 -3345 4z"/>
<path d="M855 1271 c-57 -17 -105 -84 -105 -147 0 -48 30 -98 76 -129 l31 -21
1739 0 c1669 1 1740 2 1769 19 46 29 68 65 72 121 5 64 -19 113 -72 143 l-39
22 -1725 -1 c-949 -1 -1735 -4 -1746 -7z"/>
</g>
</svg>
